# xmcd
#
# Track frame offsets: 
#        150
#        18276
#        35476
#        56027
#        77583
#        93054
#        122299
#        136698
#        160968
#        173975
#
# Disc length: 2630 seconds
#
# Revision: 0
# Processed by: cddbd v1.5.2PL0 Copyright (c) Steve Scherf et al.
# Submitted via: ExactAudioCopy v1.0b4
#
DISCID=6d0a440a
DTITLE=James Montgomery Blues Band - James Montgomery Blues Band
DYEAR=2016
DGENRE=Blues
TTITLE0=One More Heartache
TTITLE1=Born In Chicago
TTITLE2=Blues With A Feeling
TTITLE3=Young Woman's Love
TTITLE4=Mary, Mary
TTITLE5=I Got A Mind To Give Up Living
TTITLE6=Shake Your Moneymaker
TTITLE7=Good Question
TTITLE8=One Plus One
TTITLE9=Mystery Train
EXTD=
EXTT0=
EXTT1=
EXTT2=
EXTT3=
EXTT4=
EXTT5=
EXTT6=
EXTT7=
EXTT8=
EXTT9=
PLAYORDER=
